<?xml version="1.0" standalone="no"?>
<!DOCTYPE svg PUBLIC "-//W3C//DTD SVG 20010904//EN"
 "http://www.w3.org/TR/2001/REC-SVG-20010904/DTD/svg10.dtd">
<svg version="1.0" xmlns="http://www.w3.org/2000/svg"
 width="96.000000pt" height="96.000000pt" viewBox="0 0 96.000000 96.000000"
 preserveAspectRatio="xMidYMid meet">
<metadata>
Created by potrace 1.14, written by Peter Selinger 2001-2017
</metadata>
<g transform="translate(0.000000,96.000000) scale(0.100000,-0.100000)"
fill="#000000" stroke="none">
<path d="M153 789 c-45 -17 -48 -30 -50 -268 -1 -124 -2 -229 -2 -233 -1 -4
-10 -5 -21 -3 -44 8 -49 -64 -7 -101 23 -20 34 -20 409 -20 359 1 387 2 406
19 41 37 35 110 -8 102 -15 -3 -20 2 -21 18 0 12 -1 118 -2 234 -2 207 -3 213
-25 235 -23 23 -23 23 -342 23 -176 1 -327 -2 -337 -6z m640 -32 c21 -6 27
-14 28 -35 4 -117 3 -432 -1 -433 -3 -1 -58 -2 -123 -3 -92 -1 -121 -5 -130
-16 -17 -21 -149 -20 -174 2 -14 11 -44 15 -135 14 l-118 -1 -1 25 c-4 96 -3
400 2 420 4 19 13 26 40 30 51 8 580 5 612 -3z m-412 -520 c32 -20 195 -19
208 2 7 11 40 14 147 15 135 0 139 0 142 -21 3 -17 -3 -24 -27 -30 -24 -6
-648 -9 -744 -4 -19 1 -32 24 -24 44 7 19 266 14 298 -6z"/>
<path d="M191 729 c-10 -4 -20 -13 -23 -21 -3 -7 -4 -98 -4 -203 l1 -190 315
0 315 0 1 193 c0 139 -3 198 -12 210 -11 15 -40 17 -293 17 -155 0 -289 -3
-300 -6z m566 -32 c8 -8 8 -330 1 -343 -7 -10 -537 -12 -553 -2 -8 5 -12 247
-6 335 1 6 9 13 18 15 31 6 533 1 540 -5z"/>
<path d="M232 671 c-8 -6 -14 -81 -6 -81 6 0 87 80 83 81 -13 5 -70 4 -77 0z"/>
<path d="M367 624 c-9 -9 -9 -166 -1 -188 5 -13 24 -16 108 -16 55 0 107 4
114 8 9 6 12 34 10 103 l-3 94 -111 3 c-60 1 -113 -1 -117 -4z m203 -99 l0
-75 -90 0 -90 0 0 75 0 75 90 0 90 0 0 -75z"/>
<path d="M420 555 c0 -12 13 -15 60 -15 47 0 60 3 60 15 0 12 -13 15 -60 15
-47 0 -60 -3 -60 -15z"/>
<path d="M420 495 c0 -12 13 -15 60 -15 47 0 60 3 60 15 0 12 -13 15 -60 15
-47 0 -60 -3 -60 -15z"/>
</g>
</svg>
